<?xml version="1.0" encoding="utf-8"?>
<!-- Generator: Adobe Illustrator 27.7.0, SVG Export Plug-In . SVG Version: 6.00 Build 0)  -->
<svg version="1.1" id="Capa_1" xmlns="http://www.w3.org/2000/svg" xmlns:xlink="http://www.w3.org/1999/xlink" x="0px" y="0px"
	 viewBox="0 0 80 80" style="enable-background:new 0 0 80 80;" xml:space="preserve">
<style type="text/css">
	.st0{fill:#0B3B61;}
	.st1{fill:#63686D;}
</style>
<g>
	<path class="st0" d="M30,61.3c-1.5,0-2.7-1.3-2.7-2.8V32.7c0-1.6,1.2-2.8,2.7-2.8c1.5,0,2.7,1.3,2.7,2.8v25.7
		C32.7,60,31.5,61.3,30,61.3z"/>
	<path class="st0" d="M48.7,61.3c-1.5,0-2.7-1.3-2.7-2.8V20.3c0-1.6,1.2-2.8,2.7-2.8s2.7,1.3,2.7,2.8v38.1
		C51.4,60,50.2,61.3,48.7,61.3z"/>
	<path class="st1" d="M53.4,73.6H26.6C16.3,73.6,8,64.8,8,54V43.2c0-1.6,1.2-2.8,2.7-2.8s2.7,1.3,2.7,2.8V54
		c0,7.7,5.9,13.9,13.2,13.9h26.9c7.3,0,13.2-6.2,13.2-13.9V9.3c0-1.6,1.2-2.8,2.7-2.8S72,7.7,72,9.3V54C72,64.8,63.7,73.6,53.4,73.6
		z"/>
	<path class="st0" d="M10.7,29.9c1.4,0,2.6,1.2,2.6,2.8c0,1.5-1.2,2.8-2.6,2.8c-1.5,0-2.7-1.3-2.7-2.8C8,31.1,9.2,29.9,10.7,29.9z"
		/>
</g>
</svg>
